<svg width="124" height="73" viewBox="0 0 124 73" fill="none" xmlns="http://www.w3.org/2000/svg">
<g id="InDepth.dev-white logo">
<g id="InDepth.dev">
<g id="Logo xperiment">
<path id="in" d="M37.9121 20.1308C36.4295 20.1308 35.3894 21.1709 35.3894 22.6536C35.3894 24.1363 36.4295 25.1764 37.9121 25.1764C39.3948 25.1764 40.4349 24.1363 40.4349 22.6536C40.4349 21.1709 39.3948 20.1308 37.9121 20.1308ZM40.3907 38.2107V26.1058H35.4115V38.2107H40.3907ZM51.4767 25.8845C49.8834 25.8845 48.622 26.5927 47.8032 27.8319V26.1058H42.8241V38.2107H47.8032V32.2136C47.8032 31.0407 48.4228 30.2662 49.3966 30.2662C50.2596 30.2662 50.835 30.9079 50.835 31.9259V38.2107H55.8141V30.4875C55.8141 27.6991 54.0216 25.8845 51.4767 25.8845Z" fill="white"/>
<path id="Depth" d="M4.41745 37.4871V53H11.1448C16.3896 53 19.7754 49.9461 19.7754 45.2325C19.7754 40.5189 16.456 37.4871 11.344 37.4871H4.41745ZM9.55152 41.4705H11.2334C13.225 41.4705 14.5307 42.9753 14.5307 45.2768C14.5307 47.5561 13.3357 49.0167 11.4768 49.0167H9.55152V41.4705ZM26.8965 40.7181C23.0016 40.7181 20.4346 43.1745 20.4346 47.0029C20.4346 50.7428 22.891 53.177 27.0292 53.177C29.375 53.177 31.2339 52.3804 32.5174 50.9641L29.9282 48.4192C29.1758 49.1273 28.3128 49.5035 27.4718 49.5035C26.4981 49.5035 25.79 49.0167 25.458 48.0651H33.3362C33.6017 43.5949 31.1232 40.7181 26.8965 40.7181ZM25.3474 45.7636C25.5466 44.7457 26.0777 44.0375 26.9407 44.0375C27.8038 44.0375 28.4234 44.7678 28.357 45.7636H25.3474ZM43.0789 40.7181C41.8396 40.7181 40.7774 41.2049 40.0029 42.1122V40.8951H35.0237V57.2931H40.0029V51.7607C40.7996 52.6681 41.906 53.177 43.2117 53.177C46.509 53.177 48.6334 50.7649 48.6334 47.025C48.6334 43.1966 46.4426 40.7181 43.0789 40.7181ZM41.7954 49.238C40.711 49.238 40.0029 48.3085 40.0029 46.8922C40.0029 45.4759 40.711 44.5465 41.7954 44.5465C42.9019 44.5465 43.61 45.4759 43.61 46.8922C43.61 48.3085 42.9019 49.238 41.7954 49.238ZM57.9816 49.0609C57.5169 49.238 57.0301 49.3707 56.7424 49.3707C56.1449 49.3929 55.7687 48.9945 55.7687 48.3528V44.7014H58.6013V41.559H55.7687V38.1732H50.8116V41.559H49.1519V44.7014H50.8116V49.1052C50.8116 51.628 52.6041 53.2434 55.3703 53.2213C56.6539 53.2213 58.0259 52.9336 58.8226 52.4689L57.9816 49.0609ZM69.1341 40.6738C67.5408 40.6738 66.2794 41.382 65.4606 42.6212V36.5798H60.4814V53H65.4606V47.0029C65.4606 45.83 66.0802 45.0555 67.0539 45.0555C67.917 45.0555 68.4923 45.6972 68.4923 46.7152V53H73.4715V45.2768C73.4715 42.4884 71.679 40.6738 69.1341 40.6738Z" fill="white"/>
<path id=".dev" d="M56.5795 65.0221C55.2517 65.0221 54.3223 65.9515 54.3223 67.2793C54.3223 68.6292 55.2517 69.5586 56.5795 69.5586C57.9294 69.5586 58.8588 68.6292 58.8588 67.2793C58.8588 65.9515 57.9294 65.0221 56.5795 65.0221ZM73.4566 52.9614H68.4774V58.516C67.6808 57.6086 66.5743 57.0997 65.2686 57.0997C61.9713 57.0997 59.8469 59.5118 59.8469 63.2517C59.8469 67.0801 62.0377 69.5586 65.4014 69.5586C66.6407 69.5586 67.7029 69.0718 68.4774 68.1645V69.3816H73.4566V52.9614ZM66.6849 65.7302C65.5785 65.7302 64.8703 64.8008 64.8703 63.3845C64.8703 61.9682 65.5785 61.0387 66.6849 61.0387C67.7693 61.0387 68.4774 61.9682 68.4774 63.3845C68.4774 64.8008 67.7693 65.7302 66.6849 65.7302ZM81.5877 57.0997C77.6929 57.0997 75.1258 59.556 75.1258 63.3845C75.1258 67.1244 77.5822 69.5586 81.7205 69.5586C84.0662 69.5586 85.9251 68.762 87.2086 67.3457L84.6194 64.8008C83.867 65.5089 83.004 65.8851 82.163 65.8851C81.1893 65.8851 80.4812 65.3983 80.1493 64.4467H88.0274C88.2929 59.9765 85.8144 57.0997 81.5877 57.0997ZM80.0386 62.1452C80.2378 61.1272 80.7689 60.4191 81.6319 60.4191C82.495 60.4191 83.1146 61.1494 83.0482 62.1452H80.0386ZM97.3574 69.3816L101.828 57.2767H96.8485L94.8789 64.8672L92.9536 57.2767H87.8417L92.2676 69.3816H97.3574Z" fill="white"/>
</g>
<g id="New Manta white stroke" clip-path="url(#clip0)">
<g id="Vector">
<mask id="path-4-inside-1" fill="white">
<path d="M116.637 53.5114C116.608 53.5347 116.579 53.5561 116.548 53.5755C116.4 53.6714 116.234 53.7331 116.06 53.7561C115.887 53.7791 115.711 53.7629 115.545 53.7086C114.933 53.5108 113.112 52.6357 114.645 51.4512C117.066 49.5779 116.992 43.7213 116.991 43.5558C117.068 43.7644 119.753 51.0205 116.637 53.5114Z"/>
</mask>
<path d="M116.637 53.5114C116.608 53.5347 116.579 53.5561 116.548 53.5755C116.4 53.6714 116.234 53.7331 116.06 53.7561C115.887 53.7791 115.711 53.7629 115.545 53.7086C114.933 53.5108 113.112 52.6357 114.645 51.4512C117.066 49.5779 116.992 43.7213 116.991 43.5558C117.068 43.7644 119.753 51.0205 116.637 53.5114Z" fill="#032E7A" stroke="white" stroke-width="3.22333" mask="url(#path-4-inside-1)"/>
</g>
<g id="Vector_2">
<mask id="path-5-inside-2" fill="white">
<path d="M117.025 48.8361C116.299 49.9111 114.878 50.7887 113.644 51.0327C113.328 51.0934 113.007 51.1244 112.685 51.1253C111.407 51.1395 110.067 50.7845 108.825 50.6777C108.626 50.6603 108.165 50.5786 107.769 50.6149C107.726 50.6182 107.685 50.6232 107.645 50.6299C107.541 50.6437 107.439 50.6753 107.345 50.7233C107.312 50.7413 107.28 50.7621 107.25 50.7856C107.206 50.8194 107.169 50.8622 107.142 50.9114C107.131 50.9275 107.122 50.9451 107.115 50.9637C107.094 51.0177 107.082 51.075 107.08 51.1331C107.08 51.1492 107.08 51.1653 107.081 51.1814C107.08 51.1982 107.08 51.215 107.082 51.2317C107.083 51.2497 107.085 51.2677 107.088 51.2854C107.086 51.3021 107.094 51.323 107.098 51.3424C107.101 51.3555 107.105 51.3684 107.11 51.3809C107.112 51.3863 107.115 51.3914 107.118 51.3961C107.118 51.3961 107.117 51.4036 107.117 51.4063C107.171 51.5174 107.303 51.6196 107.486 51.7144C108.45 52.2104 110.859 52.4975 111.385 52.8448C111.643 53.0043 111.846 53.2417 111.966 53.5246C111.972 53.5405 111.979 53.5575 111.984 53.5732C112.177 54.1467 111.881 54.7718 111.178 55.0754C110.232 55.4882 109.162 55.314 108.161 54.9662C108.056 54.93 107.953 54.8938 107.852 54.8542C107.751 54.8146 107.63 54.7658 107.522 54.7167C107.469 54.6947 107.417 54.6719 107.366 54.6491C107.064 54.52 106.774 54.383 106.501 54.2576C106.491 54.2512 106.48 54.2457 106.469 54.2412C105.964 54.0034 105.521 53.717 105.206 53.3527C105.206 53.3527 105.206 53.348 105.2 53.3453C105.195 53.337 105.188 53.3295 105.18 53.3229C105.151 53.286 105.122 53.2501 105.101 53.2181C105.081 53.1861 105.071 53.1763 105.056 53.1545C105.041 53.1328 105.034 53.1214 105.023 53.1039C105.012 53.0864 104.998 53.0647 104.987 53.0463C104.966 53.0104 104.946 52.9757 104.928 52.9384C104.904 52.8926 104.882 52.8456 104.862 52.7975C104.856 52.7834 104.85 52.7675 104.844 52.7526C104.837 52.7373 104.831 52.7213 104.827 52.705C104.791 52.6099 104.765 52.5114 104.747 52.411C104.699 52.1465 104.697 51.8752 104.741 51.6094C104.828 51.0366 104.852 50.6492 104.746 50.3519C104.743 50.3412 104.739 50.3309 104.734 50.3209C104.596 49.9599 104.249 49.736 103.582 49.4772C103.542 49.4615 103.502 49.444 103.457 49.4288C103.334 49.3815 103.212 49.3373 103.088 49.2975C102.875 49.2235 102.659 49.1566 102.444 49.0964C102.412 49.0867 102.382 49.078 102.354 49.0706L102.332 49.0724C102.309 49.0602 102.283 49.0527 102.257 49.0504C100.361 48.5001 98.3726 48.419 96.3906 48.3265L96.308 48.3223C95.7531 48.2908 95.1974 48.2581 94.6448 48.2155C90.9345 47.9339 87.9748 46.7697 85.7866 43.576C84.6373 41.8997 83.9516 39.9907 82.929 38.2344C81.8983 36.4629 80.6478 34.8112 79.1145 33.465C76.5311 31.1992 73.2872 29.8827 70.0138 28.9499C69.4721 28.7953 52.3952 22.0887 47.1062 12.5021C41.8173 2.9155 49.2898 12.5819 55.4235 17.0911C61.5572 21.6004 68.2759 23.0179 68.6081 23.0398C70.5322 23.1655 72.5151 23.142 74.6424 22.3105C76.3016 21.662 77.1563 20.4086 78.3427 19.4963C81.5778 16.9689 79.7061 15.1125 82.9651 12.3802C84.333 11.2348 85.8086 9.80844 87.1816 9.42563C93.6355 7.62631 97.3263 12.0119 103.779 12.8509C102.959 13.9031 94.5726 19.0262 108.23 30.5921L108.245 30.6025C108.532 30.8459 108.828 31.0915 109.138 31.3408C109.275 31.4513 109.415 31.5621 109.557 31.6733C109.978 32.0068 110.378 32.3677 110.754 32.7537C111.786 33.8068 112.632 35.0173 113.382 36.291C114.29 37.8366 115.06 39.4739 115.848 41.038C116.142 41.6198 116.48 42.2973 116.783 43.0201C116.886 43.2662 116.986 43.5192 117.079 43.7734C117.703 45.4957 118.006 47.3804 117.025 48.8361Z"/>
</mask>
<path d="M117.025 48.8361C116.299 49.9111 114.878 50.7887 113.644 51.0327C113.328 51.0934 113.007 51.1244 112.685 51.1253C111.407 51.1395 110.067 50.7845 108.825 50.6777C108.626 50.6603 108.165 50.5786 107.769 50.6149C107.726 50.6182 107.685 50.6232 107.645 50.6299C107.541 50.6437 107.439 50.6753 107.345 50.7233C107.312 50.7413 107.28 50.7621 107.25 50.7856C107.206 50.8194 107.169 50.8622 107.142 50.9114C107.131 50.9275 107.122 50.9451 107.115 50.9637C107.094 51.0177 107.082 51.075 107.08 51.1331C107.08 51.1492 107.08 51.1653 107.081 51.1814C107.08 51.1982 107.08 51.215 107.082 51.2317C107.083 51.2497 107.085 51.2677 107.088 51.2854C107.086 51.3021 107.094 51.323 107.098 51.3424C107.101 51.3555 107.105 51.3684 107.11 51.3809C107.112 51.3863 107.115 51.3914 107.118 51.3961C107.118 51.3961 107.117 51.4036 107.117 51.4063C107.171 51.5174 107.303 51.6196 107.486 51.7144C108.45 52.2104 110.859 52.4975 111.385 52.8448C111.643 53.0043 111.846 53.2417 111.966 53.5246C111.972 53.5405 111.979 53.5575 111.984 53.5732C112.177 54.1467 111.881 54.7718 111.178 55.0754C110.232 55.4882 109.162 55.314 108.161 54.9662C108.056 54.93 107.953 54.8938 107.852 54.8542C107.751 54.8146 107.63 54.7658 107.522 54.7167C107.469 54.6947 107.417 54.6719 107.366 54.6491C107.064 54.52 106.774 54.383 106.501 54.2576C106.491 54.2512 106.48 54.2457 106.469 54.2412C105.964 54.0034 105.521 53.717 105.206 53.3527C105.206 53.3527 105.206 53.348 105.2 53.3453C105.195 53.337 105.188 53.3295 105.18 53.3229C105.151 53.286 105.122 53.2501 105.101 53.2181C105.081 53.1861 105.071 53.1763 105.056 53.1545C105.041 53.1328 105.034 53.1214 105.023 53.1039C105.012 53.0864 104.998 53.0647 104.987 53.0463C104.966 53.0104 104.946 52.9757 104.928 52.9384C104.904 52.8926 104.882 52.8456 104.862 52.7975C104.856 52.7834 104.85 52.7675 104.844 52.7526C104.837 52.7373 104.831 52.7213 104.827 52.705C104.791 52.6099 104.765 52.5114 104.747 52.411C104.699 52.1465 104.697 51.8752 104.741 51.6094C104.828 51.0366 104.852 50.6492 104.746 50.3519C104.743 50.3412 104.739 50.3309 104.734 50.3209C104.596 49.9599 104.249 49.736 103.582 49.4772C103.542 49.4615 103.502 49.444 103.457 49.4288C103.334 49.3815 103.212 49.3373 103.088 49.2975C102.875 49.2235 102.659 49.1566 102.444 49.0964C102.412 49.0867 102.382 49.078 102.354 49.0706L102.332 49.0724C102.309 49.0602 102.283 49.0527 102.257 49.0504C100.361 48.5001 98.3726 48.419 96.3906 48.3265L96.308 48.3223C95.7531 48.2908 95.1974 48.2581 94.6448 48.2155C90.9345 47.9339 87.9748 46.7697 85.7866 43.576C84.6373 41.8997 83.9516 39.9907 82.929 38.2344C81.8983 36.4629 80.6478 34.8112 79.1145 33.465C76.5311 31.1992 73.2872 29.8827 70.0138 28.9499C69.4721 28.7953 52.3952 22.0887 47.1062 12.5021C41.8173 2.9155 49.2898 12.5819 55.4235 17.0911C61.5572 21.6004 68.2759 23.0179 68.6081 23.0398C70.5322 23.1655 72.5151 23.142 74.6424 22.3105C76.3016 21.662 77.1563 20.4086 78.3427 19.4963C81.5778 16.9689 79.7061 15.1125 82.9651 12.3802C84.333 11.2348 85.8086 9.80844 87.1816 9.42563C93.6355 7.62631 97.3263 12.0119 103.779 12.8509C102.959 13.9031 94.5726 19.0262 108.23 30.5921L108.245 30.6025C108.532 30.8459 108.828 31.0915 109.138 31.3408C109.275 31.4513 109.415 31.5621 109.557 31.6733C109.978 32.0068 110.378 32.3677 110.754 32.7537C111.786 33.8068 112.632 35.0173 113.382 36.291C114.29 37.8366 115.06 39.4739 115.848 41.038C116.142 41.6198 116.48 42.2973 116.783 43.0201C116.886 43.2662 116.986 43.5192 117.079 43.7734C117.703 45.4957 118.006 47.3804 117.025 48.8361Z" fill="#0F96FF" stroke="white" stroke-width="3.22333" mask="url(#path-5-inside-2)"/>
</g>
<g id="Vector_3" opacity="0.85">
<mask id="path-6-inside-3" fill="white">
<path d="M117.024 48.8365C116.298 49.9115 114.878 50.7891 113.644 51.0331C113.327 51.0938 113.006 51.1248 112.685 51.1257C111.407 51.1399 110.067 50.7849 108.825 50.6781C108.626 50.6607 108.165 50.579 107.769 50.6153C107.726 50.6186 107.685 50.6236 107.645 50.6303C107.541 50.6441 107.439 50.6757 107.345 50.7237C107.312 50.7417 107.28 50.7626 107.25 50.786C107.206 50.8198 107.169 50.8627 107.141 50.9118C107.13 50.9279 107.122 50.9456 107.115 50.9641C107.094 51.0181 107.082 51.0754 107.08 51.1335C107.079 51.1496 107.079 51.1657 107.08 51.1818C107.079 51.1986 107.08 51.2154 107.082 51.2321C107.083 51.2501 107.085 51.2681 107.088 51.2858C107.086 51.3025 107.093 51.3234 107.097 51.3428C107.101 51.3559 107.105 51.3688 107.11 51.3813C107.112 51.3867 107.115 51.3918 107.118 51.3965C107.119 51.4014 107.121 51.4061 107.124 51.4105C107.163 51.5329 107.297 51.6449 107.493 51.7421L107.507 51.7497C108.471 52.2457 110.88 52.5328 111.406 52.8802C111.652 53.0328 111.847 53.2554 111.97 53.5208C111.976 53.5367 111.983 53.5537 111.988 53.5694C112.181 54.1429 111.885 54.768 111.182 55.0716C110.236 55.4845 109.166 55.3103 108.165 54.9625C108.06 54.9262 107.957 54.8901 107.856 54.8504C107.755 54.8108 107.635 54.7621 107.526 54.713C107.473 54.6909 107.421 54.6681 107.37 54.6453C107.068 54.5162 106.778 54.3792 106.505 54.2539C106.495 54.2475 106.484 54.242 106.473 54.2374C105.968 53.9997 105.525 53.7132 105.21 53.3489C105.21 53.3489 105.211 53.3443 105.204 53.3416C105.199 53.3333 105.192 53.3257 105.184 53.3191C105.155 53.2822 105.126 53.2463 105.105 53.2143C105.085 53.1823 105.075 53.1725 105.06 53.1508C105.045 53.129 105.038 53.1176 105.027 53.1001C105.016 53.0827 105.002 53.0609 104.991 53.0425C104.97 53.0066 104.95 52.972 104.932 52.9346C104.908 52.8889 104.886 52.8418 104.866 52.7937C104.86 52.7796 104.854 52.7637 104.848 52.7488C104.841 52.7335 104.836 52.7176 104.831 52.7012C104.803 52.6181 104.781 52.5331 104.765 52.4468C104.718 52.1863 104.716 51.9193 104.758 51.6575C104.85 51.0625 104.87 50.6653 104.749 50.365C104.746 50.3544 104.742 50.344 104.737 50.334C104.599 49.973 104.252 49.7491 103.585 49.4903C103.545 49.4746 103.504 49.4571 103.46 49.4419C103.337 49.3946 103.215 49.3504 103.091 49.3106L102.905 49.2505C102.764 49.2056 102.614 49.1596 102.446 49.1095C102.415 49.0998 102.385 49.0911 102.357 49.0837L102.332 49.0729C102.306 49.0696 102.282 49.0588 102.257 49.0508C100.361 48.5005 98.3725 48.4195 96.3905 48.3269L96.3079 48.3228C95.7529 48.2912 95.1972 48.2586 94.6447 48.2159C90.9344 47.9343 87.9747 46.7701 85.7865 43.5765C84.6372 41.9001 83.9515 39.9911 82.9289 38.2349C81.8982 36.4634 80.6477 34.8117 79.1144 33.4654C76.531 31.1997 73.2871 29.8831 70.0137 28.9503C70.3026 26.7306 69.7768 25.4509 69.7768 25.4509C69.7768 25.4509 69.3271 24.0159 68.4809 21.9992C70.405 22.1249 72.377 22.0176 74.2359 21.508C74.2868 21.5222 74.3406 21.5217 74.3914 21.5065C74.7594 21.5185 75.1389 21.5282 75.527 21.5352C81.8835 21.6338 87.2197 22.3009 91.6868 23.3135C99.7277 25.1306 104.951 28.033 108.244 30.6284L108.258 30.6387C108.546 30.8823 108.845 31.1285 109.153 31.3772C109.289 31.4876 109.429 31.5984 109.572 31.7096C109.993 32.0428 110.393 32.4037 110.769 32.79C111.801 33.8423 112.647 35.0537 113.398 36.3274C114.305 37.8731 115.075 39.5104 115.862 41.0743C116.152 41.6471 116.483 42.3113 116.783 43.0206C116.887 43.2667 116.986 43.5197 117.08 43.7739C117.703 45.4961 118.006 47.3808 117.024 48.8365Z"/>
</mask>
<path d="M117.024 48.8365C116.298 49.9115 114.878 50.7891 113.644 51.0331C113.327 51.0938 113.006 51.1248 112.685 51.1257C111.407 51.1399 110.067 50.7849 108.825 50.6781C108.626 50.6607 108.165 50.579 107.769 50.6153C107.726 50.6186 107.685 50.6236 107.645 50.6303C107.541 50.6441 107.439 50.6757 107.345 50.7237C107.312 50.7417 107.28 50.7626 107.25 50.786C107.206 50.8198 107.169 50.8627 107.141 50.9118C107.13 50.9279 107.122 50.9456 107.115 50.9641C107.094 51.0181 107.082 51.0754 107.08 51.1335C107.079 51.1496 107.079 51.1657 107.08 51.1818C107.079 51.1986 107.08 51.2154 107.082 51.2321C107.083 51.2501 107.085 51.2681 107.088 51.2858C107.086 51.3025 107.093 51.3234 107.097 51.3428C107.101 51.3559 107.105 51.3688 107.11 51.3813C107.112 51.3867 107.115 51.3918 107.118 51.3965C107.119 51.4014 107.121 51.4061 107.124 51.4105C107.163 51.5329 107.297 51.6449 107.493 51.7421L107.507 51.7497C108.471 52.2457 110.88 52.5328 111.406 52.8802C111.652 53.0328 111.847 53.2554 111.97 53.5208C111.976 53.5367 111.983 53.5537 111.988 53.5694C112.181 54.1429 111.885 54.768 111.182 55.0716C110.236 55.4845 109.166 55.3103 108.165 54.9625C108.06 54.9262 107.957 54.8901 107.856 54.8504C107.755 54.8108 107.635 54.7621 107.526 54.713C107.473 54.6909 107.421 54.6681 107.37 54.6453C107.068 54.5162 106.778 54.3792 106.505 54.2539C106.495 54.2475 106.484 54.242 106.473 54.2374C105.968 53.9997 105.525 53.7132 105.21 53.3489C105.21 53.3489 105.211 53.3443 105.204 53.3416C105.199 53.3333 105.192 53.3257 105.184 53.3191C105.155 53.2822 105.126 53.2463 105.105 53.2143C105.085 53.1823 105.075 53.1725 105.06 53.1508C105.045 53.129 105.038 53.1176 105.027 53.1001C105.016 53.0827 105.002 53.0609 104.991 53.0425C104.97 53.0066 104.95 52.972 104.932 52.9346C104.908 52.8889 104.886 52.8418 104.866 52.7937C104.86 52.7796 104.854 52.7637 104.848 52.7488C104.841 52.7335 104.836 52.7176 104.831 52.7012C104.803 52.6181 104.781 52.5331 104.765 52.4468C104.718 52.1863 104.716 51.9193 104.758 51.6575C104.85 51.0625 104.87 50.6653 104.749 50.365C104.746 50.3544 104.742 50.344 104.737 50.334C104.599 49.973 104.252 49.7491 103.585 49.4903C103.545 49.4746 103.504 49.4571 103.46 49.4419C103.337 49.3946 103.215 49.3504 103.091 49.3106L102.905 49.2505C102.764 49.2056 102.614 49.1596 102.446 49.1095C102.415 49.0998 102.385 49.0911 102.357 49.0837L102.332 49.0729C102.306 49.0696 102.282 49.0588 102.257 49.0508C100.361 48.5005 98.3725 48.4195 96.3905 48.3269L96.3079 48.3228C95.7529 48.2912 95.1972 48.2586 94.6447 48.2159C90.9344 47.9343 87.9747 46.7701 85.7865 43.5765C84.6372 41.9001 83.9515 39.9911 82.9289 38.2349C81.8982 36.4634 80.6477 34.8117 79.1144 33.4654C76.531 31.1997 73.2871 29.8831 70.0137 28.9503C70.3026 26.7306 69.7768 25.4509 69.7768 25.4509C69.7768 25.4509 69.3271 24.0159 68.4809 21.9992C70.405 22.1249 72.377 22.0176 74.2359 21.508C74.2868 21.5222 74.3406 21.5217 74.3914 21.5065C74.7594 21.5185 75.1389 21.5282 75.527 21.5352C81.8835 21.6338 87.2197 22.3009 91.6868 23.3135C99.7277 25.1306 104.951 28.033 108.244 30.6284L108.258 30.6387C108.546 30.8823 108.845 31.1285 109.153 31.3772C109.289 31.4876 109.429 31.5984 109.572 31.7096C109.993 32.0428 110.393 32.4037 110.769 32.79C111.801 33.8423 112.647 35.0537 113.398 36.3274C114.305 37.8731 115.075 39.5104 115.862 41.0743C116.152 41.6471 116.483 42.3113 116.783 43.0206C116.887 43.2667 116.986 43.5197 117.08 43.7739C117.703 45.4961 118.006 47.3808 117.024 48.8365Z" fill="#032E7A" stroke="white" stroke-width="3.22333" mask="url(#path-6-inside-3)"/>
</g>
<g id="Vector_4">
<mask id="path-7-inside-4" fill="white">
<path d="M112.685 51.1253C111.407 51.1396 108.471 50.5767 108.471 50.5767C108.471 50.5767 106.791 50.4568 102.899 49.2418C100.289 48.4268 98.3724 48.419 96.3902 48.3274L96.3077 48.3223C95.7574 48.2914 95.1962 48.258 94.6445 48.2155C90.9343 47.9339 87.9737 46.7696 85.7864 43.5761C84.637 41.8997 83.9513 39.9907 82.9288 38.2344C81.8981 36.4629 80.6476 34.8112 79.1143 33.465C76.5303 31.1963 73.2868 29.877 70.013 28.947C69.9552 28.3401 70.0617 27.5788 69.9429 26.6464C69.7458 25.1365 69.0862 23.5873 68.4986 22.0323C68.4932 22.021 68.4886 22.0093 68.4847 21.9974C67.879 20.389 67.3562 18.7762 67.5053 17.1905C68.0282 11.6186 75.5804 9.81478 76.7872 4.16369C76.7872 4.16369 76.8147 4.17293 76.8648 4.19269L76.8913 4.20182C80.0055 5.33604 83.1439 6.71731 85.6464 8.78815C85.9433 9.03415 86.231 9.29217 86.5094 9.56223C86.7082 9.7526 86.902 9.94892 87.0907 10.1512C88.359 11.4969 89.3297 13.1059 89.9378 14.8704C90.8835 17.6215 91.2949 20.4667 91.6903 23.3135C92.2107 27.0605 92.7032 30.8086 94.3464 34.3416C96.7897 39.601 100.762 43.975 105.447 47.2299C105.526 47.2837 105.606 47.3394 105.682 47.3957C106.23 47.7828 106.757 48.1823 107.34 48.5625C108.358 49.2622 109.396 49.9296 110.516 50.4261C111.211 50.7408 111.939 50.9753 112.685 51.1253Z"/>
</mask>
<path d="M112.685 51.1253C111.407 51.1396 108.471 50.5767 108.471 50.5767C108.471 50.5767 106.791 50.4568 102.899 49.2418C100.289 48.4268 98.3724 48.419 96.3902 48.3274L96.3077 48.3223C95.7574 48.2914 95.1962 48.258 94.6445 48.2155C90.9343 47.9339 87.9737 46.7696 85.7864 43.5761C84.637 41.8997 83.9513 39.9907 82.9288 38.2344C81.8981 36.4629 80.6476 34.8112 79.1143 33.465C76.5303 31.1963 73.2868 29.877 70.013 28.947C69.9552 28.3401 70.0617 27.5788 69.9429 26.6464C69.7458 25.1365 69.0862 23.5873 68.4986 22.0323C68.4932 22.021 68.4886 22.0093 68.4847 21.9974C67.879 20.389 67.3562 18.7762 67.5053 17.1905C68.0282 11.6186 75.5804 9.81478 76.7872 4.16369C76.7872 4.16369 76.8147 4.17293 76.8648 4.19269L76.8913 4.20182C80.0055 5.33604 83.1439 6.71731 85.6464 8.78815C85.9433 9.03415 86.231 9.29217 86.5094 9.56223C86.7082 9.7526 86.902 9.94892 87.0907 10.1512C88.359 11.4969 89.3297 13.1059 89.9378 14.8704C90.8835 17.6215 91.2949 20.4667 91.6903 23.3135C92.2107 27.0605 92.7032 30.8086 94.3464 34.3416C96.7897 39.601 100.762 43.975 105.447 47.2299C105.526 47.2837 105.606 47.3394 105.682 47.3957C106.23 47.7828 106.757 48.1823 107.34 48.5625C108.358 49.2622 109.396 49.9296 110.516 50.4261C111.211 50.7408 111.939 50.9753 112.685 51.1253Z" fill="#0F69AF" stroke="white" stroke-width="3.22333" mask="url(#path-7-inside-4)"/>
</g>
</g>
</g>
</g>
<defs>
<clipPath id="clip0">
<rect width="78" height="47" fill="white" transform="translate(45.963) rotate(7.41628)"/>
</clipPath>
</defs>
</svg>
